<mxfile host="65bd71144e" modified="2021-01-21T22:09:14.421Z" agent="5.0 (Windows NT 10.0; Win64; x64) AppleWebKit/537.36 (KHTML, like Gecko) Code/1.52.1 Chrome/83.0.4103.122 Electron/9.3.5 Safari/537.36" etag="mV6YkKQwtQuiq9XmlW5e" version="13.10.0" type="embed" pages="5">
    <diagram id="uq04VEFEQE6Xi56XoTHK" name="Communication Diagram">
        <mxGraphModel dx="2125" dy="740" grid="1" gridSize="10" guides="1" tooltips="1" connect="1" arrows="1" fold="1" page="1" pageScale="1" pageWidth="827" pageHeight="1169" math="0" shadow="0">
            <root>
                <mxCell id="0"/>
                <mxCell id="1" parent="0"/>
                <mxCell id="2" value="" style="edgeStyle=orthogonalEdgeStyle;rounded=0;orthogonalLoop=1;jettySize=auto;html=1;endArrow=none;endFill=0;strokeColor=#330000;entryX=-0.006;entryY=0.505;entryDx=0;entryDy=0;entryPerimeter=0;" parent="1" source="3" target="4" edge="1">
                    <mxGeometry relative="1" as="geometry">
                        <mxPoint x="250" y="510" as="targetPoint"/>
                    </mxGeometry>
                </mxCell>
                <mxCell id="3" value=":Patientrights&lt;br style=&quot;font-size: 13px&quot;&gt;UI" style="shape=umlBoundary;whiteSpace=wrap;html=1;fontSize=13;" parent="1" vertex="1">
                    <mxGeometry x="80" y="470" width="100" height="80" as="geometry"/>
                </mxCell>
                <mxCell id="4" value="&lt;font&gt;&lt;font style=&quot;font-size: 12px&quot;&gt;:Patientrights&lt;br&gt;Controller&lt;/font&gt;&lt;br style=&quot;font-size: 13px&quot;&gt;&lt;/font&gt;" style="ellipse;shape=umlControl;whiteSpace=wrap;html=1;fontSize=13;" parent="1" vertex="1">
                    <mxGeometry x="425" y="462.5" width="85" height="95" as="geometry"/>
                </mxCell>
                <mxCell id="5" value="" style="edgeStyle=orthogonalEdgeStyle;rounded=0;orthogonalLoop=1;jettySize=auto;html=1;endArrow=none;endFill=0;strokeColor=#330000;entryX=0.002;entryY=0.502;entryDx=0;entryDy=0;entryPerimeter=0;" parent="1" source="6" target="3" edge="1">
                    <mxGeometry relative="1" as="geometry">
                        <mxPoint x="-155" y="510" as="targetPoint"/>
                    </mxGeometry>
                </mxCell>
                <mxCell id="6" value="&lt;font style=&quot;font-size: 13px&quot;&gt;:พนักงานเวชระเบียน&lt;/font&gt;" style="shape=umlActor;verticalLabelPosition=bottom;verticalAlign=top;html=1;" parent="1" vertex="1">
                    <mxGeometry x="-220" y="480" width="30" height="60" as="geometry"/>
                </mxCell>
                <mxCell id="8" value="&lt;font style=&quot;font-size: 12px&quot;&gt;:&lt;/font&gt;&lt;span style=&quot;font-size: 12px&quot;&gt;Ability&lt;br&gt;patientrights&lt;/span&gt;" style="ellipse;shape=umlEntity;whiteSpace=wrap;html=1;fontSize=14;" parent="1" vertex="1">
                    <mxGeometry x="355.5" y="790" width="80" height="80" as="geometry"/>
                </mxCell>
                <mxCell id="9" value="&lt;font style=&quot;font-size: 12px&quot;&gt;:Insurance&lt;/font&gt;" style="ellipse;shape=umlEntity;whiteSpace=wrap;html=1;fontSize=13;" parent="1" vertex="1">
                    <mxGeometry x="602.5" y="770" width="80" height="80" as="geometry"/>
                </mxCell>
                <mxCell id="10" value="&lt;font style=&quot;font-size: 12px&quot;&gt;m&lt;br&gt;:Medicalre&lt;br&gt;cordstaff&lt;/font&gt;" style="ellipse;shape=umlEntity;whiteSpace=wrap;html=1;fontSize=13;" parent="1" vertex="1">
                    <mxGeometry x="760" y="640" width="80" height="80" as="geometry"/>
                </mxCell>
                <mxCell id="11" value="&lt;font style=&quot;font-size: 12px&quot;&gt;:Patientrecord&lt;/font&gt;" style="ellipse;shape=umlEntity;whiteSpace=wrap;html=1;fontSize=13;" parent="1" vertex="1">
                    <mxGeometry x="160" y="710" width="80" height="80" as="geometry"/>
                </mxCell>
                <mxCell id="12" value="patientrights&lt;br style=&quot;font-size: 13px&quot;&gt;:Patientrights" style="ellipse;shape=umlEntity;whiteSpace=wrap;html=1;fillColor=#fff2cc;strokeColor=#d6b656;fontSize=13;" parent="1" vertex="1">
                    <mxGeometry x="760" y="470" width="90" height="90" as="geometry"/>
                </mxCell>
                <mxCell id="14" value="" style="endArrow=none;html=1;strokeColor=#330000;entryX=0.078;entryY=0.804;entryDx=0;entryDy=0;entryPerimeter=0;exitX=0.683;exitY=0.021;exitDx=0;exitDy=0;exitPerimeter=0;" parent="1" source="11" target="4" edge="1">
                    <mxGeometry width="50" height="50" relative="1" as="geometry">
                        <mxPoint x="350" y="650" as="sourcePoint"/>
                        <mxPoint x="400" y="600" as="targetPoint"/>
                    </mxGeometry>
                </mxCell>
                <mxCell id="15" value="" style="endArrow=none;html=1;strokeColor=#330000;exitX=0.5;exitY=0;exitDx=0;exitDy=0;" parent="1" source="8" target="4" edge="1">
                    <mxGeometry width="50" height="50" relative="1" as="geometry">
                        <mxPoint x="350" y="710" as="sourcePoint"/>
                        <mxPoint x="400" y="660" as="targetPoint"/>
                    </mxGeometry>
                </mxCell>
                <mxCell id="16" value="" style="endArrow=none;html=1;strokeColor=#330000;exitX=0.373;exitY=0.041;exitDx=0;exitDy=0;entryX=0.769;entryY=0.942;entryDx=0;entryDy=0;entryPerimeter=0;exitPerimeter=0;" parent="1" source="9" target="4" edge="1">
                    <mxGeometry width="50" height="50" relative="1" as="geometry">
                        <mxPoint x="550" y="710" as="sourcePoint"/>
                        <mxPoint x="480" y="538" as="targetPoint"/>
                    </mxGeometry>
                </mxCell>
                <mxCell id="17" value="" style="endArrow=none;html=1;strokeColor=#330000;entryX=0.965;entryY=0.725;entryDx=0;entryDy=0;entryPerimeter=0;exitX=0;exitY=0;exitDx=0;exitDy=0;" parent="1" source="10" target="4" edge="1">
                    <mxGeometry width="50" height="50" relative="1" as="geometry">
                        <mxPoint x="550" y="650" as="sourcePoint"/>
                        <mxPoint x="600" y="600" as="targetPoint"/>
                    </mxGeometry>
                </mxCell>
                <mxCell id="18" value="" style="endArrow=none;html=1;strokeColor=#330000;entryX=0;entryY=0.5;entryDx=0;entryDy=0;exitX=0.998;exitY=0.571;exitDx=0;exitDy=0;exitPerimeter=0;" parent="1" source="4" target="12" edge="1">
                    <mxGeometry width="50" height="50" relative="1" as="geometry">
                        <mxPoint x="500" y="510" as="sourcePoint"/>
                        <mxPoint x="600" y="600" as="targetPoint"/>
                    </mxGeometry>
                </mxCell>
                <mxCell id="19" value="&lt;font style=&quot;font-size: 12px&quot;&gt;1: เปิด()&lt;/font&gt;" style="text;html=1;strokeColor=none;fillColor=none;align=center;verticalAlign=middle;whiteSpace=wrap;rounded=0;fontSize=13;" parent="1" vertex="1">
                    <mxGeometry x="-80" y="530" width="50" height="20" as="geometry"/>
                </mxCell>
                <mxCell id="20" value="" style="endArrow=block;html=1;strokeColor=#330000;endFill=1;" parent="1" edge="1">
                    <mxGeometry width="50" height="50" relative="1" as="geometry">
                        <mxPoint x="-120" y="520" as="sourcePoint"/>
                        <mxPoint x="20" y="520" as="targetPoint"/>
                    </mxGeometry>
                </mxCell>
                <mxCell id="21" value="" style="endArrow=block;html=1;strokeColor=#330000;endFill=1;" parent="1" edge="1">
                    <mxGeometry width="50" height="50" relative="1" as="geometry">
                        <mxPoint x="233" y="500" as="sourcePoint"/>
                        <mxPoint x="373" y="500" as="targetPoint"/>
                    </mxGeometry>
                </mxCell>
                <mxCell id="22" value="&lt;font style=&quot;font-size: 12px&quot;&gt;5: โหลดข้อมูล()&lt;/font&gt;" style="text;html=1;strokeColor=none;fillColor=none;align=center;verticalAlign=middle;whiteSpace=wrap;rounded=0;" parent="1" vertex="1">
                    <mxGeometry x="220" y="430" width="160" height="20" as="geometry"/>
                </mxCell>
                <mxCell id="23" value="" style="endArrow=block;html=1;strokeColor=#330000;endFill=1;" parent="1" edge="1">
                    <mxGeometry width="50" height="50" relative="1" as="geometry">
                        <mxPoint x="230.5" y="429" as="sourcePoint"/>
                        <mxPoint x="370.5" y="429" as="targetPoint"/>
                    </mxGeometry>
                </mxCell>
                <mxCell id="27" value="6: ดึงข้อมูลทั้งหมด()" style="text;html=1;strokeColor=none;fillColor=none;align=center;verticalAlign=middle;whiteSpace=wrap;rounded=0;fontSize=13;" parent="1" vertex="1">
                    <mxGeometry x="180" y="600" width="120" height="20" as="geometry"/>
                </mxCell>
                <mxCell id="28" value="6: ดึงข้อมูลทั้งหมด()" style="text;html=1;strokeColor=none;fillColor=none;align=center;verticalAlign=middle;whiteSpace=wrap;rounded=0;fontSize=13;" parent="1" vertex="1">
                    <mxGeometry x="294" y="660" width="120" height="20" as="geometry"/>
                </mxCell>
                <mxCell id="29" value="6: ดึงข้อมูลทั้งหมด()" style="text;html=1;strokeColor=none;fillColor=none;align=center;verticalAlign=middle;whiteSpace=wrap;rounded=0;fontSize=13;" parent="1" vertex="1">
                    <mxGeometry x="582.5" y="650" width="120" height="20" as="geometry"/>
                </mxCell>
                <mxCell id="32" value="&lt;font style=&quot;font-size: 12px&quot;&gt;3: ค้นหาพนักงานเวชระเบียนพนักงานเวชระเบียน(id)&lt;/font&gt;" style="text;html=1;strokeColor=none;fillColor=none;align=center;verticalAlign=middle;whiteSpace=wrap;rounded=0;fontSize=13;" parent="1" vertex="1">
                    <mxGeometry x="692" y="585" width="228" height="20" as="geometry"/>
                </mxCell>
                <mxCell id="35" value="&lt;font style=&quot;font-size: 13px&quot;&gt;8: เพิ่มข้อมูลสิทธิ์ผู้ป่วยและบันทึกเวลาอัตโนมัติ(&lt;span style=&quot;font-size: 12px&quot;&gt;m, a, pc, i&lt;/span&gt;&lt;span style=&quot;font-size: 12px&quot;&gt;, ps ,pn ,r&lt;/span&gt;)&amp;nbsp;&lt;/font&gt;" style="text;html=1;strokeColor=none;fillColor=none;align=center;verticalAlign=middle;whiteSpace=wrap;rounded=0;" parent="1" vertex="1">
                    <mxGeometry x="175" y="391" width="265" height="20" as="geometry"/>
                </mxCell>
                <mxCell id="36" value="9:&amp;nbsp; patientrights = สร้าง(m, a, pc , i&lt;span style=&quot;font-size: 12px&quot;&gt;, ps ,pn ,r&lt;/span&gt;, date)" style="text;html=1;strokeColor=none;fillColor=none;align=center;verticalAlign=middle;whiteSpace=wrap;rounded=0;fontSize=13;" parent="1" vertex="1">
                    <mxGeometry x="550" y="476" width="185" height="20" as="geometry"/>
                </mxCell>
                <mxCell id="37" value="10: บันทึก()" style="text;html=1;strokeColor=none;fillColor=none;align=center;verticalAlign=middle;whiteSpace=wrap;rounded=0;fontSize=13;" parent="1" vertex="1">
                    <mxGeometry x="610" y="440" width="82" height="20" as="geometry"/>
                </mxCell>
                <mxCell id="38" value="" style="endArrow=block;html=1;strokeColor=#330000;endFill=1;" parent="1" edge="1">
                    <mxGeometry width="50" height="50" relative="1" as="geometry">
                        <mxPoint x="573.5" y="465.6600000000001" as="sourcePoint"/>
                        <mxPoint x="713.5" y="465.6600000000001" as="targetPoint"/>
                    </mxGeometry>
                </mxCell>
                <mxCell id="39" value="" style="endArrow=block;html=1;strokeColor=#330000;endFill=1;" parent="1" edge="1">
                    <mxGeometry width="50" height="50" relative="1" as="geometry">
                        <mxPoint x="574.5" y="509.6600000000001" as="sourcePoint"/>
                        <mxPoint x="714.5" y="509.6600000000001" as="targetPoint"/>
                    </mxGeometry>
                </mxCell>
                <mxCell id="40" value="" style="endArrow=block;html=1;strokeColor=#330000;endFill=1;" parent="1" edge="1">
                    <mxGeometry width="50" height="50" relative="1" as="geometry">
                        <mxPoint x="350" y="580" as="sourcePoint"/>
                        <mxPoint x="260" y="655" as="targetPoint"/>
                    </mxGeometry>
                </mxCell>
                <mxCell id="41" value="" style="endArrow=block;html=1;strokeColor=#330000;endFill=1;" parent="1" edge="1">
                    <mxGeometry width="50" height="50" relative="1" as="geometry">
                        <mxPoint x="430" y="610" as="sourcePoint"/>
                        <mxPoint x="400" y="730" as="targetPoint"/>
                    </mxGeometry>
                </mxCell>
                <mxCell id="42" value="" style="endArrow=block;html=1;strokeColor=#330000;endFill=1;" parent="1" edge="1">
                    <mxGeometry width="50" height="50" relative="1" as="geometry">
                        <mxPoint x="540" y="605" as="sourcePoint"/>
                        <mxPoint x="600" y="695" as="targetPoint"/>
                    </mxGeometry>
                </mxCell>
                <mxCell id="44" value="" style="endArrow=block;html=1;strokeColor=#330000;endFill=1;" parent="1" edge="1">
                    <mxGeometry width="50" height="50" relative="1" as="geometry">
                        <mxPoint x="690" y="608" as="sourcePoint"/>
                        <mxPoint x="760" y="638" as="targetPoint"/>
                    </mxGeometry>
                </mxCell>
                <mxCell id="46" value="" style="endArrow=block;html=1;strokeColor=#330000;endFill=1;" parent="1" edge="1">
                    <mxGeometry width="50" height="50" relative="1" as="geometry">
                        <mxPoint x="-120" y="500" as="sourcePoint"/>
                        <mxPoint x="20" y="500" as="targetPoint"/>
                    </mxGeometry>
                </mxCell>
                <mxCell id="51" value="&lt;font style=&quot;font-size: 12px&quot;&gt;7: เพิ่มข้อมูล( a, pc, i, ps ,pn ,r)&lt;/font&gt;" style="text;html=1;strokeColor=none;fillColor=none;align=center;verticalAlign=middle;whiteSpace=wrap;rounded=0;" parent="1" vertex="1">
                    <mxGeometry x="-140" y="460" width="207" height="20" as="geometry"/>
                </mxCell>
                <mxCell id="_rNqtr7qAKkZsA-uPxcs-52" value="&lt;font style=&quot;font-size: 12px&quot;&gt;2 : โหลดข้อมูลเลขที่พนักงานเวชระเบียนที่เข้าระบบ(id)&lt;/font&gt;" style="text;html=1;strokeColor=none;fillColor=none;align=center;verticalAlign=middle;whiteSpace=wrap;rounded=0;" parent="1" vertex="1">
                    <mxGeometry x="210" y="470" width="195" height="20" as="geometry"/>
                </mxCell>
                <mxCell id="_rNqtr7qAKkZsA-uPxcs-56" value="" style="endArrow=block;html=1;strokeColor=#330000;endFill=1;" parent="1" edge="1">
                    <mxGeometry width="50" height="50" relative="1" as="geometry">
                        <mxPoint x="233" y="462.5" as="sourcePoint"/>
                        <mxPoint x="373" y="462.5" as="targetPoint"/>
                    </mxGeometry>
                </mxCell>
                <mxCell id="53" value="4: m = ค้นหา&lt;span style=&quot;font-size: 12px&quot;&gt;พนักงานเวชระเบียน&lt;/span&gt;&lt;span style=&quot;font-size: 12px&quot;&gt;พนักงานเวชระเบียน&lt;/span&gt;(id)" style="text;html=1;strokeColor=none;fillColor=none;align=center;verticalAlign=middle;whiteSpace=wrap;rounded=0;fontSize=13;" parent="1" vertex="1">
                    <mxGeometry x="582.5" y="537.5" width="172" height="20" as="geometry"/>
                </mxCell>
                <mxCell id="54" value="" style="endArrow=block;html=1;strokeColor=#330000;endFill=1;" parent="1" edge="1">
                    <mxGeometry width="50" height="50" relative="1" as="geometry">
                        <mxPoint x="600" y="563" as="sourcePoint"/>
                        <mxPoint x="670" y="593" as="targetPoint"/>
                    </mxGeometry>
                </mxCell>
            </root>
        </mxGraphModel>
    </diagram>
    <diagram id="9OtMg5kcq7ys0b88Z_S4" name="Class Diagram ( ทั้ง Entity, Boundary, Control">
        <mxGraphModel dx="2125" dy="740" grid="1" gridSize="10" guides="1" tooltips="1" connect="1" arrows="1" fold="1" page="1" pageScale="1" pageWidth="827" pageHeight="1169" math="0" shadow="0">
            <root>
                <mxCell id="KtXMnVQGv9gxdhzujqgW-0"/>
                <mxCell id="KtXMnVQGv9gxdhzujqgW-1" parent="KtXMnVQGv9gxdhzujqgW-0"/>
                <mxCell id="KtXMnVQGv9gxdhzujqgW-2" value="Patientrights&lt;br style=&quot;font-size: 13px&quot;&gt;UI" style="shape=umlBoundary;whiteSpace=wrap;html=1;fontSize=13;" parent="KtXMnVQGv9gxdhzujqgW-1" vertex="1">
                    <mxGeometry x="-180" y="160" width="100" height="80" as="geometry"/>
                </mxCell>
                <mxCell id="KtXMnVQGv9gxdhzujqgW-3" value="&lt;font style=&quot;font-size: 13px&quot;&gt;Patientrights&lt;br&gt;Controller&lt;br&gt;&lt;/font&gt;" style="ellipse;shape=umlControl;whiteSpace=wrap;html=1;" parent="KtXMnVQGv9gxdhzujqgW-1" vertex="1">
                    <mxGeometry x="60" y="150" width="80" height="90" as="geometry"/>
                </mxCell>
                <mxCell id="KtXMnVQGv9gxdhzujqgW-20" value="&lt;&lt;Entity&gt;&gt;&#10;Insurance" style="swimlane;fontStyle=0;childLayout=stackLayout;horizontal=1;startSize=40;fillColor=none;horizontalStack=0;resizeParent=1;resizeParentMax=0;resizeLast=0;collapsible=1;marginBottom=0;" parent="KtXMnVQGv9gxdhzujqgW-1" vertex="1">
                    <mxGeometry x="234.57" y="635.9000000000001" width="186.43" height="92" as="geometry"/>
                </mxCell>
                <mxCell id="KtXMnVQGv9gxdhzujqgW-21" value="+ id: int" style="text;strokeColor=none;fillColor=none;align=left;verticalAlign=top;spacingLeft=4;spacingRight=4;overflow=hidden;rotatable=0;points=[[0,0.5],[1,0.5]];portConstraint=eastwest;" parent="KtXMnVQGv9gxdhzujqgW-20" vertex="1">
                    <mxGeometry y="40" width="186.43" height="26" as="geometry"/>
                </mxCell>
                <mxCell id="KtXMnVQGv9gxdhzujqgW-22" value="+ Insurancecompany: string" style="text;strokeColor=none;fillColor=none;align=left;verticalAlign=top;spacingLeft=4;spacingRight=4;overflow=hidden;rotatable=0;points=[[0,0.5],[1,0.5]];portConstraint=eastwest;" parent="KtXMnVQGv9gxdhzujqgW-20" vertex="1">
                    <mxGeometry y="66" width="186.43" height="26" as="geometry"/>
                </mxCell>
                <mxCell id="KtXMnVQGv9gxdhzujqgW-30" value="" style="endArrow=diamondThin;html=1;strokeColor=#330000;endFill=0;endSize=25;" parent="KtXMnVQGv9gxdhzujqgW-1" source="KtXMnVQGv9gxdhzujqgW-20" target="KtXMnVQGv9gxdhzujqgW-78" edge="1">
                    <mxGeometry width="50" height="50" relative="1" as="geometry">
                        <mxPoint x="160" y="269.5" as="sourcePoint"/>
                        <mxPoint x="450" y="265" as="targetPoint"/>
                    </mxGeometry>
                </mxCell>
                <mxCell id="KtXMnVQGv9gxdhzujqgW-31" value="1" style="edgeLabel;html=1;align=center;verticalAlign=middle;resizable=0;points=[];fontSize=12;" parent="KtXMnVQGv9gxdhzujqgW-30" vertex="1" connectable="0">
                    <mxGeometry x="-0.8143" relative="1" as="geometry">
                        <mxPoint x="23.26" y="7.940000000000001" as="offset"/>
                    </mxGeometry>
                </mxCell>
                <mxCell id="KtXMnVQGv9gxdhzujqgW-32" value="0..*" style="edgeLabel;html=1;align=center;verticalAlign=middle;resizable=0;points=[];fontSize=12;" parent="KtXMnVQGv9gxdhzujqgW-30" vertex="1" connectable="0">
                    <mxGeometry x="0.5559" y="2" relative="1" as="geometry">
                        <mxPoint x="22.49" y="-11.5" as="offset"/>
                    </mxGeometry>
                </mxCell>
                <mxCell id="KtXMnVQGv9gxdhzujqgW-69" value="&lt;&lt;Entity&gt;&gt;&#10;PatientRights" style="swimlane;fontStyle=0;childLayout=stackLayout;horizontal=1;startSize=40;fillColor=#fff2cc;horizontalStack=0;resizeParent=1;resizeParentMax=0;resizeLast=0;collapsible=1;marginBottom=0;strokeColor=#d6b656;" parent="KtXMnVQGv9gxdhzujqgW-1" vertex="1">
                    <mxGeometry x="220" y="220" width="220" height="170" as="geometry">
                        <mxRectangle x="220" y="220" width="100" height="26" as="alternateBounds"/>
                    </mxGeometry>
                </mxCell>
                <mxCell id="KtXMnVQGv9gxdhzujqgW-70" value="+ id: int" style="text;strokeColor=none;fillColor=none;align=left;verticalAlign=top;spacingLeft=4;spacingRight=4;overflow=hidden;rotatable=0;points=[[0,0.5],[1,0.5]];portConstraint=eastwest;" parent="KtXMnVQGv9gxdhzujqgW-69" vertex="1">
                    <mxGeometry y="40" width="220" height="26" as="geometry"/>
                </mxCell>
                <mxCell id="KtXMnVQGv9gxdhzujqgW-71" value="+ PermissionDate: time" style="text;strokeColor=none;fillColor=none;align=left;verticalAlign=top;spacingLeft=4;spacingRight=4;overflow=hidden;rotatable=0;points=[[0,0.5],[1,0.5]];portConstraint=eastwest;" parent="KtXMnVQGv9gxdhzujqgW-69" vertex="1">
                    <mxGeometry y="66" width="220" height="26" as="geometry"/>
                </mxCell>
                <mxCell id="KtXMnVQGv9gxdhzujqgW-77" value="+ Permission: string" style="text;strokeColor=none;fillColor=none;align=left;verticalAlign=top;spacingLeft=4;spacingRight=4;overflow=hidden;rotatable=0;points=[[0,0.5],[1,0.5]];portConstraint=eastwest;" parent="KtXMnVQGv9gxdhzujqgW-69" vertex="1">
                    <mxGeometry y="92" width="220" height="26" as="geometry"/>
                </mxCell>
                <mxCell id="eFgCbqo-LIXHvoN0-QXY-0" value="+ PermissionArea: string" style="text;strokeColor=none;fillColor=none;align=left;verticalAlign=top;spacingLeft=4;spacingRight=4;overflow=hidden;rotatable=0;points=[[0,0.5],[1,0.5]];portConstraint=eastwest;" parent="KtXMnVQGv9gxdhzujqgW-69" vertex="1">
                    <mxGeometry y="118" width="220" height="26" as="geometry"/>
                </mxCell>
                <mxCell id="KtXMnVQGv9gxdhzujqgW-78" value="+ Responsible: string" style="text;strokeColor=none;fillColor=none;align=left;verticalAlign=top;spacingLeft=4;spacingRight=4;overflow=hidden;rotatable=0;points=[[0,0.5],[1,0.5]];portConstraint=eastwest;" parent="KtXMnVQGv9gxdhzujqgW-69" vertex="1">
                    <mxGeometry y="144" width="220" height="26" as="geometry"/>
                </mxCell>
                <mxCell id="KtXMnVQGv9gxdhzujqgW-79" value="&lt;&lt;Entity&gt;&gt;&#10;AbilityPatientRights" style="swimlane;fontStyle=0;childLayout=stackLayout;horizontal=1;startSize=40;fillColor=none;horizontalStack=0;resizeParent=1;resizeParentMax=0;resizeLast=0;collapsible=1;marginBottom=0;" parent="KtXMnVQGv9gxdhzujqgW-1" vertex="1">
                    <mxGeometry x="-200" y="266" width="190" height="144" as="geometry"/>
                </mxCell>
                <mxCell id="tTvDiXppMQmByJ-DRf3X-0" value="+ id: int" style="text;strokeColor=none;fillColor=none;align=left;verticalAlign=top;spacingLeft=4;spacingRight=4;overflow=hidden;rotatable=0;points=[[0,0.5],[1,0.5]];portConstraint=eastwest;" parent="KtXMnVQGv9gxdhzujqgW-79" vertex="1">
                    <mxGeometry y="40" width="190" height="26" as="geometry"/>
                </mxCell>
                <mxCell id="KtXMnVQGv9gxdhzujqgW-80" value="+ Operative: int" style="text;strokeColor=none;fillColor=none;align=left;verticalAlign=top;spacingLeft=4;spacingRight=4;overflow=hidden;rotatable=0;points=[[0,0.5],[1,0.5]];portConstraint=eastwest;" parent="KtXMnVQGv9gxdhzujqgW-79" vertex="1">
                    <mxGeometry y="66" width="190" height="26" as="geometry"/>
                </mxCell>
                <mxCell id="KtXMnVQGv9gxdhzujqgW-81" value="+ MedicalSupplies: int" style="text;strokeColor=none;fillColor=none;align=left;verticalAlign=top;spacingLeft=4;spacingRight=4;overflow=hidden;rotatable=0;points=[[0,0.5],[1,0.5]];portConstraint=eastwest;" parent="KtXMnVQGv9gxdhzujqgW-79" vertex="1">
                    <mxGeometry y="92" width="190" height="26" as="geometry"/>
                </mxCell>
                <mxCell id="KtXMnVQGv9gxdhzujqgW-82" value="+ Examine: int" style="text;strokeColor=none;fillColor=none;align=left;verticalAlign=top;spacingLeft=4;spacingRight=4;overflow=hidden;rotatable=0;points=[[0,0.5],[1,0.5]];portConstraint=eastwest;" parent="KtXMnVQGv9gxdhzujqgW-79" vertex="1">
                    <mxGeometry y="118" width="190" height="26" as="geometry"/>
                </mxCell>
                <mxCell id="Al3xBv8aZ7t-4XvISNPD-0" value="&lt;&lt;Entity&gt;&gt;&#10;Patientrecord" style="swimlane;fontStyle=0;childLayout=stackLayout;horizontal=1;startSize=30;fillColor=none;horizontalStack=0;resizeParent=1;resizeParentMax=0;resizeLast=0;collapsible=1;marginBottom=0;" parent="KtXMnVQGv9gxdhzujqgW-1" vertex="1">
                    <mxGeometry x="610" y="180" width="140" height="316" as="geometry">
                        <mxRectangle x="200" y="510" width="100" height="30" as="alternateBounds"/>
                    </mxGeometry>
                </mxCell>
                <mxCell id="Al3xBv8aZ7t-4XvISNPD-1" value="+ id: int" style="text;strokeColor=none;fillColor=none;align=left;verticalAlign=top;spacingLeft=4;spacingRight=4;overflow=hidden;rotatable=0;points=[[0,0.5],[1,0.5]];portConstraint=eastwest;" parent="Al3xBv8aZ7t-4XvISNPD-0" vertex="1">
                    <mxGeometry y="30" width="140" height="26" as="geometry"/>
                </mxCell>
                <mxCell id="Al3xBv8aZ7t-4XvISNPD-2" value="+ Name: string" style="text;strokeColor=none;fillColor=none;align=left;verticalAlign=top;spacingLeft=4;spacingRight=4;overflow=hidden;rotatable=0;points=[[0,0.5],[1,0.5]];portConstraint=eastwest;" parent="Al3xBv8aZ7t-4XvISNPD-0" vertex="1">
                    <mxGeometry y="56" width="140" height="26" as="geometry"/>
                </mxCell>
                <mxCell id="Al3xBv8aZ7t-4XvISNPD-3" value="+ Idcardnumber: int" style="text;strokeColor=none;fillColor=none;align=left;verticalAlign=top;spacingLeft=4;spacingRight=4;overflow=hidden;rotatable=0;points=[[0,0.5],[1,0.5]];portConstraint=eastwest;" parent="Al3xBv8aZ7t-4XvISNPD-0" vertex="1">
                    <mxGeometry y="82" width="140" height="26" as="geometry"/>
                </mxCell>
                <mxCell id="Al3xBv8aZ7t-4XvISNPD-4" value="+ Age: int" style="text;strokeColor=none;fillColor=none;align=left;verticalAlign=top;spacingLeft=4;spacingRight=4;overflow=hidden;rotatable=0;points=[[0,0.5],[1,0.5]];portConstraint=eastwest;" parent="Al3xBv8aZ7t-4XvISNPD-0" vertex="1">
                    <mxGeometry y="108" width="140" height="26" as="geometry"/>
                </mxCell>
                <mxCell id="Al3xBv8aZ7t-4XvISNPD-5" value="+ Bloodtype: string" style="text;strokeColor=none;fillColor=none;align=left;verticalAlign=top;spacingLeft=4;spacingRight=4;overflow=hidden;rotatable=0;points=[[0,0.5],[1,0.5]];portConstraint=eastwest;" parent="Al3xBv8aZ7t-4XvISNPD-0" vertex="1">
                    <mxGeometry y="134" width="140" height="26" as="geometry"/>
                </mxCell>
                <mxCell id="Al3xBv8aZ7t-4XvISNPD-6" value="+ Disease: string" style="text;strokeColor=none;fillColor=none;align=left;verticalAlign=top;spacingLeft=4;spacingRight=4;overflow=hidden;rotatable=0;points=[[0,0.5],[1,0.5]];portConstraint=eastwest;" parent="Al3xBv8aZ7t-4XvISNPD-0" vertex="1">
                    <mxGeometry y="160" width="140" height="26" as="geometry"/>
                </mxCell>
                <mxCell id="Al3xBv8aZ7t-4XvISNPD-7" value="+ Allergic: string" style="text;strokeColor=none;fillColor=none;align=left;verticalAlign=top;spacingLeft=4;spacingRight=4;overflow=hidden;rotatable=0;points=[[0,0.5],[1,0.5]];portConstraint=eastwest;" parent="Al3xBv8aZ7t-4XvISNPD-0" vertex="1">
                    <mxGeometry y="186" width="140" height="26" as="geometry"/>
                </mxCell>
                <mxCell id="Al3xBv8aZ7t-4XvISNPD-8" value="+ Phonenumber: string" style="text;strokeColor=none;fillColor=none;align=left;verticalAlign=top;spacingLeft=4;spacingRight=4;overflow=hidden;rotatable=0;points=[[0,0.5],[1,0.5]];portConstraint=eastwest;" parent="Al3xBv8aZ7t-4XvISNPD-0" vertex="1">
                    <mxGeometry y="212" width="140" height="26" as="geometry"/>
                </mxCell>
                <mxCell id="Al3xBv8aZ7t-4XvISNPD-9" value="+ Email: string" style="text;strokeColor=none;fillColor=none;align=left;verticalAlign=top;spacingLeft=4;spacingRight=4;overflow=hidden;rotatable=0;points=[[0,0.5],[1,0.5]];portConstraint=eastwest;" parent="Al3xBv8aZ7t-4XvISNPD-0" vertex="1">
                    <mxGeometry y="238" width="140" height="26" as="geometry"/>
                </mxCell>
                <mxCell id="Al3xBv8aZ7t-4XvISNPD-10" value="+ Home: string" style="text;strokeColor=none;fillColor=none;align=left;verticalAlign=top;spacingLeft=4;spacingRight=4;overflow=hidden;rotatable=0;points=[[0,0.5],[1,0.5]];portConstraint=eastwest;" parent="Al3xBv8aZ7t-4XvISNPD-0" vertex="1">
                    <mxGeometry y="264" width="140" height="26" as="geometry"/>
                </mxCell>
                <mxCell id="Al3xBv8aZ7t-4XvISNPD-11" value="+ Date: time" style="text;strokeColor=none;fillColor=none;align=left;verticalAlign=top;spacingLeft=4;spacingRight=4;overflow=hidden;rotatable=0;points=[[0,0.5],[1,0.5]];portConstraint=eastwest;" parent="Al3xBv8aZ7t-4XvISNPD-0" vertex="1">
                    <mxGeometry y="290" width="140" height="26" as="geometry"/>
                </mxCell>
                <mxCell id="Al3xBv8aZ7t-4XvISNPD-12" value="&lt;&lt;Entity&gt;&gt;&#10;Prename" style="swimlane;fontStyle=0;childLayout=stackLayout;horizontal=1;startSize=30;fillColor=none;horizontalStack=0;resizeParent=1;resizeParentMax=0;resizeLast=0;collapsible=1;marginBottom=0;" parent="KtXMnVQGv9gxdhzujqgW-1" vertex="1">
                    <mxGeometry x="840" y="180" width="140" height="82" as="geometry"/>
                </mxCell>
                <mxCell id="Al3xBv8aZ7t-4XvISNPD-13" value="+ id: int" style="text;strokeColor=none;fillColor=none;align=left;verticalAlign=top;spacingLeft=4;spacingRight=4;overflow=hidden;rotatable=0;points=[[0,0.5],[1,0.5]];portConstraint=eastwest;" parent="Al3xBv8aZ7t-4XvISNPD-12" vertex="1">
                    <mxGeometry y="30" width="140" height="26" as="geometry"/>
                </mxCell>
                <mxCell id="Al3xBv8aZ7t-4XvISNPD-14" value="+ prefix: string" style="text;strokeColor=none;fillColor=none;align=left;verticalAlign=top;spacingLeft=4;spacingRight=4;overflow=hidden;rotatable=0;points=[[0,0.5],[1,0.5]];portConstraint=eastwest;" parent="Al3xBv8aZ7t-4XvISNPD-12" vertex="1">
                    <mxGeometry y="56" width="140" height="26" as="geometry"/>
                </mxCell>
                <mxCell id="Al3xBv8aZ7t-4XvISNPD-15" value="&lt;&lt;Entity&gt;&gt;&#10;Gender" style="swimlane;fontStyle=0;childLayout=stackLayout;horizontal=1;startSize=30;fillColor=none;horizontalStack=0;resizeParent=1;resizeParentMax=0;resizeLast=0;collapsible=1;marginBottom=0;" parent="KtXMnVQGv9gxdhzujqgW-1" vertex="1">
                    <mxGeometry x="847" y="414" width="140" height="82" as="geometry"/>
                </mxCell>
                <mxCell id="Al3xBv8aZ7t-4XvISNPD-16" value="+ id: int" style="text;strokeColor=none;fillColor=none;align=left;verticalAlign=top;spacingLeft=4;spacingRight=4;overflow=hidden;rotatable=0;points=[[0,0.5],[1,0.5]];portConstraint=eastwest;" parent="Al3xBv8aZ7t-4XvISNPD-15" vertex="1">
                    <mxGeometry y="30" width="140" height="26" as="geometry"/>
                </mxCell>
                <mxCell id="Al3xBv8aZ7t-4XvISNPD-17" value="+ Genderstatus: string" style="text;strokeColor=none;fillColor=none;align=left;verticalAlign=top;spacingLeft=4;spacingRight=4;overflow=hidden;rotatable=0;points=[[0,0.5],[1,0.5]];portConstraint=eastwest;" parent="Al3xBv8aZ7t-4XvISNPD-15" vertex="1">
                    <mxGeometry y="56" width="140" height="26" as="geometry"/>
                </mxCell>
                <mxCell id="Al3xBv8aZ7t-4XvISNPD-18" value="&lt;&lt;Entity&gt;&gt;&#10;Medicalrecordstaff" style="swimlane;fontStyle=0;childLayout=stackLayout;horizontal=1;startSize=30;fillColor=none;horizontalStack=0;resizeParent=1;resizeParentMax=0;resizeLast=0;collapsible=1;marginBottom=0;" parent="KtXMnVQGv9gxdhzujqgW-1" vertex="1">
                    <mxGeometry x="610" y="635.9" width="140" height="82" as="geometry"/>
                </mxCell>
                <mxCell id="Al3xBv8aZ7t-4XvISNPD-19" value="+ id: int" style="text;strokeColor=none;fillColor=none;align=left;verticalAlign=top;spacingLeft=4;spacingRight=4;overflow=hidden;rotatable=0;points=[[0,0.5],[1,0.5]];portConstraint=eastwest;" parent="Al3xBv8aZ7t-4XvISNPD-18" vertex="1">
                    <mxGeometry y="30" width="140" height="26" as="geometry"/>
                </mxCell>
                <mxCell id="Al3xBv8aZ7t-4XvISNPD-20" value="+ Name: string" style="text;strokeColor=none;fillColor=none;align=left;verticalAlign=top;spacingLeft=4;spacingRight=4;overflow=hidden;rotatable=0;points=[[0,0.5],[1,0.5]];portConstraint=eastwest;" parent="Al3xBv8aZ7t-4XvISNPD-18" vertex="1">
                    <mxGeometry y="56" width="140" height="26" as="geometry"/>
                </mxCell>
                <mxCell id="Al3xBv8aZ7t-4XvISNPD-21" style="edgeStyle=none;rounded=0;orthogonalLoop=1;jettySize=auto;html=1;entryX=0;entryY=0.5;entryDx=0;entryDy=0;endArrow=none;endFill=0;fontColor=#000000;startArrow=diamondThin;startFill=0;startSize=25;exitX=1.009;exitY=0.238;exitDx=0;exitDy=0;exitPerimeter=0;" parent="KtXMnVQGv9gxdhzujqgW-1" source="Al3xBv8aZ7t-4XvISNPD-5" target="Al3xBv8aZ7t-4XvISNPD-13" edge="1">
                    <mxGeometry relative="1" as="geometry">
                        <mxPoint x="750" y="301" as="sourcePoint"/>
                    </mxGeometry>
                </mxCell>
                <mxCell id="Al3xBv8aZ7t-4XvISNPD-22" value="1" style="edgeLabel;html=1;align=center;verticalAlign=middle;resizable=0;points=[];fontColor=#000000;" parent="Al3xBv8aZ7t-4XvISNPD-21" vertex="1" connectable="0">
                    <mxGeometry x="0.8264" y="2" relative="1" as="geometry">
                        <mxPoint x="-3.71" y="-19.58" as="offset"/>
                    </mxGeometry>
                </mxCell>
                <mxCell id="Al3xBv8aZ7t-4XvISNPD-23" value="0..*" style="edgeLabel;html=1;align=center;verticalAlign=middle;resizable=0;points=[];fontColor=#000000;" parent="Al3xBv8aZ7t-4XvISNPD-21" vertex="1" connectable="0">
                    <mxGeometry x="-0.5872" y="-3" relative="1" as="geometry">
                        <mxPoint x="-9.59" y="-12.76" as="offset"/>
                    </mxGeometry>
                </mxCell>
                <mxCell id="Al3xBv8aZ7t-4XvISNPD-24" style="edgeStyle=none;rounded=0;orthogonalLoop=1;jettySize=auto;html=1;entryX=0;entryY=0.5;entryDx=0;entryDy=0;endArrow=none;endFill=0;fontColor=#000000;startArrow=diamondThin;startFill=0;startSize=25;" parent="KtXMnVQGv9gxdhzujqgW-1" target="Al3xBv8aZ7t-4XvISNPD-16" edge="1">
                    <mxGeometry relative="1" as="geometry">
                        <mxPoint x="751" y="333" as="sourcePoint"/>
                    </mxGeometry>
                </mxCell>
                <mxCell id="Al3xBv8aZ7t-4XvISNPD-25" value="1" style="edgeLabel;html=1;align=center;verticalAlign=middle;resizable=0;points=[];fontColor=#000000;" parent="Al3xBv8aZ7t-4XvISNPD-24" vertex="1" connectable="0">
                    <mxGeometry x="0.895" y="1" relative="1" as="geometry">
                        <mxPoint x="-11" y="-30.21" as="offset"/>
                    </mxGeometry>
                </mxCell>
                <mxCell id="Al3xBv8aZ7t-4XvISNPD-26" value="0..*" style="edgeLabel;html=1;align=center;verticalAlign=middle;resizable=0;points=[];fontColor=#000000;" parent="Al3xBv8aZ7t-4XvISNPD-24" vertex="1" connectable="0">
                    <mxGeometry x="-0.5464" y="4" relative="1" as="geometry">
                        <mxPoint x="13.8" y="-9" as="offset"/>
                    </mxGeometry>
                </mxCell>
                <mxCell id="Al3xBv8aZ7t-4XvISNPD-27" style="edgeStyle=none;rounded=0;orthogonalLoop=1;jettySize=auto;html=1;entryX=0.5;entryY=0;entryDx=0;entryDy=0;endArrow=none;endFill=0;fontColor=#000000;startArrow=diamondThin;startFill=0;targetPerimeterSpacing=6;startSize=25;exitX=0.562;exitY=1.005;exitDx=0;exitDy=0;exitPerimeter=0;" parent="KtXMnVQGv9gxdhzujqgW-1" source="KtXMnVQGv9gxdhzujqgW-78" target="Al3xBv8aZ7t-4XvISNPD-18" edge="1">
                    <mxGeometry relative="1" as="geometry">
                        <mxPoint x="333.00000000000006" y="399.99800000000005" as="sourcePoint"/>
                    </mxGeometry>
                </mxCell>
                <mxCell id="Al3xBv8aZ7t-4XvISNPD-28" value="1" style="edgeLabel;html=1;align=center;verticalAlign=middle;resizable=0;points=[];fontColor=#000000;" parent="Al3xBv8aZ7t-4XvISNPD-27" vertex="1" connectable="0">
                    <mxGeometry x="0.7333" y="-1" relative="1" as="geometry">
                        <mxPoint x="23.88" y="-3.450000000000001" as="offset"/>
                    </mxGeometry>
                </mxCell>
                <mxCell id="Al3xBv8aZ7t-4XvISNPD-29" value="0..*" style="edgeLabel;html=1;align=center;verticalAlign=middle;resizable=0;points=[];fontColor=#000000;" parent="Al3xBv8aZ7t-4XvISNPD-27" vertex="1" connectable="0">
                    <mxGeometry x="-0.5511" y="-2" relative="1" as="geometry">
                        <mxPoint x="-25.79" y="-47.94" as="offset"/>
                    </mxGeometry>
                </mxCell>
                <mxCell id="Al3xBv8aZ7t-4XvISNPD-30" value="" style="endArrow=diamondThin;html=1;strokeColor=#330000;endFill=0;endSize=25;exitX=1;exitY=0.5;exitDx=0;exitDy=0;entryX=0;entryY=0.5;entryDx=0;entryDy=0;" parent="KtXMnVQGv9gxdhzujqgW-1" source="KtXMnVQGv9gxdhzujqgW-80" target="KtXMnVQGv9gxdhzujqgW-77" edge="1">
                    <mxGeometry width="50" height="50" relative="1" as="geometry">
                        <mxPoint x="-353.57000000000016" y="518.3119027403941" as="sourcePoint"/>
                        <mxPoint x="-170" y="450" as="targetPoint"/>
                    </mxGeometry>
                </mxCell>
                <mxCell id="Al3xBv8aZ7t-4XvISNPD-31" value="1" style="edgeLabel;html=1;align=center;verticalAlign=middle;resizable=0;points=[];fontSize=12;" parent="Al3xBv8aZ7t-4XvISNPD-30" vertex="1" connectable="0">
                    <mxGeometry x="-0.8143" relative="1" as="geometry">
                        <mxPoint x="20" y="9.31" as="offset"/>
                    </mxGeometry>
                </mxCell>
                <mxCell id="Al3xBv8aZ7t-4XvISNPD-32" value="0..*" style="edgeLabel;html=1;align=center;verticalAlign=middle;resizable=0;points=[];fontSize=12;" parent="Al3xBv8aZ7t-4XvISNPD-30" vertex="1" connectable="0">
                    <mxGeometry x="0.5559" y="2" relative="1" as="geometry">
                        <mxPoint x="21.93" y="-17.35" as="offset"/>
                    </mxGeometry>
                </mxCell>
                <mxCell id="Al3xBv8aZ7t-4XvISNPD-33" value="" style="endArrow=diamondThin;html=1;strokeColor=#330000;entryX=1;entryY=0.5;entryDx=0;entryDy=0;endFill=0;endSize=25;exitX=0;exitY=0.5;exitDx=0;exitDy=0;" parent="KtXMnVQGv9gxdhzujqgW-1" source="Al3xBv8aZ7t-4XvISNPD-6" target="KtXMnVQGv9gxdhzujqgW-70" edge="1">
                    <mxGeometry width="50" height="50" relative="1" as="geometry">
                        <mxPoint x="369.99999999999983" y="400.0019027403941" as="sourcePoint"/>
                        <mxPoint x="553.5699999999999" y="331.69" as="targetPoint"/>
                    </mxGeometry>
                </mxCell>
                <mxCell id="Al3xBv8aZ7t-4XvISNPD-34" value="1" style="edgeLabel;html=1;align=center;verticalAlign=middle;resizable=0;points=[];fontSize=12;" parent="Al3xBv8aZ7t-4XvISNPD-33" vertex="1" connectable="0">
                    <mxGeometry x="-0.8143" relative="1" as="geometry">
                        <mxPoint y="-11" as="offset"/>
                    </mxGeometry>
                </mxCell>
                <mxCell id="Al3xBv8aZ7t-4XvISNPD-35" value="0..*" style="edgeLabel;html=1;align=center;verticalAlign=middle;resizable=0;points=[];fontSize=12;" parent="Al3xBv8aZ7t-4XvISNPD-33" vertex="1" connectable="0">
                    <mxGeometry x="0.5559" y="2" relative="1" as="geometry">
                        <mxPoint x="2.960000000000001" y="-32.64" as="offset"/>
                    </mxGeometry>
                </mxCell>
                <mxCell id="Al3xBv8aZ7t-4XvISNPD-36" value="" style="endArrow=diamondThin;html=1;strokeColor=#330000;endFill=0;endSize=25;exitX=0.5;exitY=0;exitDx=0;exitDy=0;" parent="KtXMnVQGv9gxdhzujqgW-1" source="Al3xBv8aZ7t-4XvISNPD-18" target="Al3xBv8aZ7t-4XvISNPD-11" edge="1">
                    <mxGeometry width="50" height="50" relative="1" as="geometry">
                        <mxPoint x="399.99999999999983" y="450.0019027403941" as="sourcePoint"/>
                        <mxPoint x="583.5699999999999" y="381.69" as="targetPoint"/>
                    </mxGeometry>
                </mxCell>
                <mxCell id="Al3xBv8aZ7t-4XvISNPD-37" value="1" style="edgeLabel;html=1;align=center;verticalAlign=middle;resizable=0;points=[];fontSize=12;" parent="Al3xBv8aZ7t-4XvISNPD-36" vertex="1" connectable="0">
                    <mxGeometry x="-0.8143" relative="1" as="geometry">
                        <mxPoint x="24.66" y="-4.02" as="offset"/>
                    </mxGeometry>
                </mxCell>
                <mxCell id="Al3xBv8aZ7t-4XvISNPD-38" value="0..*" style="edgeLabel;html=1;align=center;verticalAlign=middle;resizable=0;points=[];fontSize=12;" parent="Al3xBv8aZ7t-4XvISNPD-36" vertex="1" connectable="0">
                    <mxGeometry x="0.5559" y="2" relative="1" as="geometry">
                        <mxPoint x="22" y="13.100000000000001" as="offset"/>
                    </mxGeometry>
                </mxCell>
            </root>
        </mxGraphModel>
    </diagram>
    <diagram id="dwFdGYByDeM1MjQ2Bbn2" name="Business Use Case">
        <mxGraphModel dx="1298" dy="740" grid="1" gridSize="10" guides="1" tooltips="1" connect="1" arrows="1" fold="1" page="1" pageScale="1" pageWidth="827" pageHeight="1169" math="0" shadow="0">
            <root>
                <mxCell id="HDqzJFep9o0-66T5FmmI-0"/>
                <mxCell id="HDqzJFep9o0-66T5FmmI-1" parent="HDqzJFep9o0-66T5FmmI-0"/>
                <mxCell id="HDqzJFep9o0-66T5FmmI-2" value="&amp;lt;&amp;lt;Business&amp;gt;&amp;gt;&lt;br&gt;&lt;span lang=&quot;TH&quot; style=&quot;font-family: &amp;#34;th sarabunpsk&amp;#34; , sans-serif&quot;&gt;&lt;font style=&quot;font-size: 12px&quot;&gt;พนักงานเวชระเบียน&lt;/font&gt;&lt;/span&gt;" style="shape=umlActor;verticalLabelPosition=bottom;verticalAlign=top;html=1;" vertex="1" parent="HDqzJFep9o0-66T5FmmI-1">
                    <mxGeometry x="120" y="320" width="70" height="130" as="geometry"/>
                </mxCell>
                <mxCell id="HDqzJFep9o0-66T5FmmI-3" style="edgeStyle=none;rounded=0;orthogonalLoop=1;jettySize=auto;html=1;exitX=0;exitY=0.5;exitDx=0;exitDy=0;exitPerimeter=0;endArrow=none;endFill=0;" edge="1" parent="HDqzJFep9o0-66T5FmmI-1" source="HDqzJFep9o0-66T5FmmI-4">
                    <mxGeometry relative="1" as="geometry">
                        <mxPoint x="200" y="385" as="targetPoint"/>
                    </mxGeometry>
                </mxCell>
                <mxCell id="HDqzJFep9o0-66T5FmmI-4" value="&amp;lt;&amp;lt;Business&amp;gt;&amp;gt;&lt;br&gt;บันทึกสิทธิ์ผู้ป่วย&lt;span&gt;&#9;&lt;/span&gt;" style="strokeWidth=2;html=1;shape=mxgraph.flowchart.start_1;whiteSpace=wrap;" vertex="1" parent="HDqzJFep9o0-66T5FmmI-1">
                    <mxGeometry x="330" y="342.5" width="190" height="85" as="geometry"/>
                </mxCell>
                <mxCell id="HDqzJFep9o0-66T5FmmI-5" style="rounded=0;orthogonalLoop=1;jettySize=auto;html=1;exitX=0.5;exitY=1;exitDx=0;exitDy=0;exitPerimeter=0;entryX=0.855;entryY=0.145;entryDx=0;entryDy=0;entryPerimeter=0;endArrow=none;endFill=0;" edge="1" parent="HDqzJFep9o0-66T5FmmI-1" source="HDqzJFep9o0-66T5FmmI-6" target="HDqzJFep9o0-66T5FmmI-4">
                    <mxGeometry relative="1" as="geometry"/>
                </mxCell>
                <mxCell id="HDqzJFep9o0-66T5FmmI-6" value="&lt;div&gt;&lt;b&gt;ในบทบาทของ &lt;/b&gt;พนักงานเวชระเบียน&lt;/div&gt;&lt;div&gt;&lt;b&gt;&lt;br&gt;&lt;/b&gt;&lt;/div&gt;&lt;div&gt;&lt;b&gt;ฉันต้องการ &lt;/b&gt;บันทึกสิทธิ์ผู้ป่วย&lt;/div&gt;&lt;div&gt;&lt;b&gt;&lt;br&gt;&lt;/b&gt;&lt;/div&gt;&lt;div&gt;&lt;b&gt;เพื่อ &lt;/b&gt;ให้บันทึกสิทธิ์ในการรักษาผู้ป่วยที่จะเข้ารับการรักษาได้&lt;/div&gt;&lt;div&gt;&lt;br&gt;&lt;/div&gt;" style="shape=note;whiteSpace=wrap;html=1;size=14;verticalAlign=top;align=left;spacingTop=-6;" vertex="1" parent="HDqzJFep9o0-66T5FmmI-1">
                    <mxGeometry x="540" y="100" width="280" height="110" as="geometry"/>
                </mxCell>
            </root>
        </mxGraphModel>
    </diagram>
    <diagram id="OyQQSZ04KgaIlCvimPV_" name="System Use Case">
        <mxGraphModel dx="1298" dy="740" grid="1" gridSize="10" guides="1" tooltips="1" connect="1" arrows="1" fold="1" page="1" pageScale="1" pageWidth="827" pageHeight="1169" math="0" shadow="0">
            <root>
                <mxCell id="k4ICMnTQlosbcHtQs1dH-0"/>
                <mxCell id="k4ICMnTQlosbcHtQs1dH-1" parent="k4ICMnTQlosbcHtQs1dH-0"/>
                <mxCell id="k4ICMnTQlosbcHtQs1dH-3" value="พนักงานเวชระเบียน" style="shape=umlActor;verticalLabelPosition=bottom;verticalAlign=top;html=1;" vertex="1" parent="k4ICMnTQlosbcHtQs1dH-1">
                    <mxGeometry x="180" y="255" width="60" height="110" as="geometry"/>
                </mxCell>
                <mxCell id="k4ICMnTQlosbcHtQs1dH-4" value="บันทึกสิทธิ์ผู้ป่วย&lt;br&gt;ลงในฐานข้อมูล" style="strokeWidth=2;html=1;shape=mxgraph.flowchart.start_1;whiteSpace=wrap;" vertex="1" parent="k4ICMnTQlosbcHtQs1dH-1">
                    <mxGeometry x="640" y="140" width="160" height="80" as="geometry"/>
                </mxCell>
                <mxCell id="k4ICMnTQlosbcHtQs1dH-5" value="&amp;lt;&amp;lt;extend&amp;gt;&amp;gt;" style="rounded=0;orthogonalLoop=1;jettySize=auto;html=1;exitX=0.145;exitY=0.855;exitDx=0;exitDy=0;exitPerimeter=0;dashed=1;fontFamily=Helvetica;endArrow=open;endFill=0;endSize=12;entryX=1;entryY=0.5;entryDx=0;entryDy=0;" edge="1" parent="k4ICMnTQlosbcHtQs1dH-1" source="k4ICMnTQlosbcHtQs1dH-4" target="k4ICMnTQlosbcHtQs1dH-6">
                    <mxGeometry relative="1" as="geometry">
                        <mxPoint x="522.5999999999999" y="288.70000000000005" as="targetPoint"/>
                    </mxGeometry>
                </mxCell>
                <mxCell id="k4ICMnTQlosbcHtQs1dH-6" value="เข้าสู่ระบบ" style="ellipse;whiteSpace=wrap;html=1;fontSize=12;" vertex="1" parent="k4ICMnTQlosbcHtQs1dH-1">
                    <mxGeometry x="370" y="270" width="150" height="80" as="geometry"/>
                </mxCell>
                <mxCell id="k4ICMnTQlosbcHtQs1dH-7" value="" style="endArrow=open;html=1;entryX=0;entryY=0.5;entryDx=0;entryDy=0;endFill=0;strokeWidth=1;jumpSize=12;endSize=15;" edge="1" parent="k4ICMnTQlosbcHtQs1dH-1" source="k4ICMnTQlosbcHtQs1dH-3" target="k4ICMnTQlosbcHtQs1dH-6">
                    <mxGeometry width="50" height="50" relative="1" as="geometry">
                        <mxPoint x="390" y="230" as="sourcePoint"/>
                        <mxPoint x="440" y="180" as="targetPoint"/>
                    </mxGeometry>
                </mxCell>
            </root>
        </mxGraphModel>
    </diagram>
    <diagram id="bKuJ9HDTIBWNmMeNKlTZ" name="System Activity Diagram">
        <mxGraphModel dx="1527" dy="871" grid="1" gridSize="10" guides="1" tooltips="1" connect="1" arrows="1" fold="1" page="1" pageScale="1" pageWidth="827" pageHeight="1169" math="0" shadow="0">
            <root>
                <mxCell id="Hbqb-1Qobj14XvleTHor-0"/>
                <mxCell id="Hbqb-1Qobj14XvleTHor-1" parent="Hbqb-1Qobj14XvleTHor-0"/>
                <mxCell id="Hbqb-1Qobj14XvleTHor-2" value="ระบบย่อย ระบบบันทึกสิทธิ์ผู้ป่วย" style="shape=umlFrame;whiteSpace=wrap;html=1;width=201;height=20;" parent="Hbqb-1Qobj14XvleTHor-1" vertex="1">
                    <mxGeometry x="39" y="40" width="761" height="1090" as="geometry"/>
                </mxCell>
                <mxCell id="Hbqb-1Qobj14XvleTHor-3" value="" style="shape=table;html=1;whiteSpace=wrap;startSize=0;container=1;collapsible=0;childLayout=tableLayout;" parent="Hbqb-1Qobj14XvleTHor-1" vertex="1">
                    <mxGeometry x="80" y="80" width="680" height="1010" as="geometry"/>
                </mxCell>
                <mxCell id="Hbqb-1Qobj14XvleTHor-4" value="" style="shape=partialRectangle;html=1;whiteSpace=wrap;collapsible=0;dropTarget=0;pointerEvents=0;fillColor=none;top=0;left=0;bottom=0;right=0;points=[[0,0.5],[1,0.5]];portConstraint=eastwest;" parent="Hbqb-1Qobj14XvleTHor-3" vertex="1">
                    <mxGeometry width="680" height="48" as="geometry"/>
                </mxCell>
                <mxCell id="Hbqb-1Qobj14XvleTHor-5" value="&lt;span style=&quot;font-family: &amp;#34;th sarabunpsk&amp;#34; , sans-serif&quot;&gt;พนักงานเวชระเบียน&lt;/span&gt;" style="shape=partialRectangle;html=1;whiteSpace=wrap;connectable=0;overflow=hidden;fillColor=none;top=0;left=0;bottom=0;right=0;" parent="Hbqb-1Qobj14XvleTHor-4" vertex="1">
                    <mxGeometry width="270" height="48" as="geometry"/>
                </mxCell>
                <mxCell id="Hbqb-1Qobj14XvleTHor-6" value="ระบบ" style="shape=partialRectangle;html=1;whiteSpace=wrap;connectable=0;overflow=hidden;fillColor=none;top=0;left=0;bottom=0;right=0;" parent="Hbqb-1Qobj14XvleTHor-4" vertex="1">
                    <mxGeometry x="270" width="410" height="48" as="geometry"/>
                </mxCell>
                <mxCell id="Hbqb-1Qobj14XvleTHor-7" value="" style="shape=partialRectangle;html=1;whiteSpace=wrap;collapsible=0;dropTarget=0;pointerEvents=0;fillColor=none;top=0;left=0;bottom=0;right=0;points=[[0,0.5],[1,0.5]];portConstraint=eastwest;" parent="Hbqb-1Qobj14XvleTHor-3" vertex="1">
                    <mxGeometry y="48" width="680" height="962" as="geometry"/>
                </mxCell>
                <mxCell id="Hbqb-1Qobj14XvleTHor-8" value="" style="shape=partialRectangle;html=1;whiteSpace=wrap;connectable=0;overflow=hidden;fillColor=none;top=0;left=0;bottom=0;right=0;" parent="Hbqb-1Qobj14XvleTHor-7" vertex="1">
                    <mxGeometry width="270" height="962" as="geometry"/>
                </mxCell>
                <mxCell id="Hbqb-1Qobj14XvleTHor-9" value="" style="shape=partialRectangle;html=1;whiteSpace=wrap;connectable=0;overflow=hidden;fillColor=none;top=0;left=0;bottom=0;right=0;" parent="Hbqb-1Qobj14XvleTHor-7" vertex="1">
                    <mxGeometry x="270" width="410" height="962" as="geometry"/>
                </mxCell>
                <mxCell id="Hbqb-1Qobj14XvleTHor-10" value="&lt;font style=&quot;vertical-align: inherit&quot;&gt;&lt;font style=&quot;vertical-align: inherit&quot;&gt;เปิดหน้าจอ&lt;/font&gt;&lt;/font&gt;" style="rounded=1;whiteSpace=wrap;html=1;arcSize=40;fontColor=#000000;fillColor=#ffffc0;strokeColor=#ff0000;" parent="Hbqb-1Qobj14XvleTHor-1" vertex="1">
                    <mxGeometry x="150" y="210" width="120" height="40" as="geometry"/>
                </mxCell>
                <mxCell id="Hbqb-1Qobj14XvleTHor-11" value="" style="edgeStyle=orthogonalEdgeStyle;html=1;verticalAlign=bottom;endArrow=open;endSize=8;strokeColor=#ff0000;entryX=0;entryY=0.5;entryDx=0;entryDy=0;" parent="Hbqb-1Qobj14XvleTHor-1" source="Hbqb-1Qobj14XvleTHor-10" target="Hbqb-1Qobj14XvleTHor-51" edge="1">
                    <mxGeometry relative="1" as="geometry">
                        <mxPoint x="590" y="250" as="targetPoint"/>
                    </mxGeometry>
                </mxCell>
                <mxCell id="Hbqb-1Qobj14XvleTHor-12" value="โหลดข้อมูล ผู้ป่วย&lt;br&gt;ลงใน combobox" style="rounded=1;whiteSpace=wrap;html=1;arcSize=40;fontColor=#000000;fillColor=#ffffc0;strokeColor=#ff0000;" parent="Hbqb-1Qobj14XvleTHor-1" vertex="1">
                    <mxGeometry x="539" y="420" width="120" height="40" as="geometry"/>
                </mxCell>
                <mxCell id="Hbqb-1Qobj14XvleTHor-13" value="" style="edgeStyle=orthogonalEdgeStyle;html=1;verticalAlign=bottom;endArrow=open;endSize=8;strokeColor=#ff0000;entryX=0.5;entryY=0;entryDx=0;entryDy=0;" parent="Hbqb-1Qobj14XvleTHor-1" source="Hbqb-1Qobj14XvleTHor-12" target="Hbqb-1Qobj14XvleTHor-14" edge="1">
                    <mxGeometry relative="1" as="geometry">
                        <mxPoint x="599" y="565" as="targetPoint"/>
                    </mxGeometry>
                </mxCell>
                <mxCell id="Hbqb-1Qobj14XvleTHor-14" value="โหลดข้อมูลประกัน&lt;br&gt;ลงใน combobox" style="rounded=1;whiteSpace=wrap;html=1;arcSize=40;fontColor=#000000;fillColor=#ffffc0;strokeColor=#ff0000;" parent="Hbqb-1Qobj14XvleTHor-1" vertex="1">
                    <mxGeometry x="538.5" y="480" width="120" height="40" as="geometry"/>
                </mxCell>
                <mxCell id="Hbqb-1Qobj14XvleTHor-15" value="" style="edgeStyle=orthogonalEdgeStyle;html=1;verticalAlign=bottom;endArrow=open;endSize=8;strokeColor=#ff0000;entryX=0.5;entryY=0;entryDx=0;entryDy=0;" parent="Hbqb-1Qobj14XvleTHor-1" source="Hbqb-1Qobj14XvleTHor-14" target="Hbqb-1Qobj14XvleTHor-31" edge="1">
                    <mxGeometry relative="1" as="geometry">
                        <mxPoint x="599" y="515" as="targetPoint"/>
                    </mxGeometry>
                </mxCell>
                <mxCell id="Hbqb-1Qobj14XvleTHor-17" value="แสดงหน้าจอ" style="rounded=1;whiteSpace=wrap;html=1;arcSize=40;fontColor=#000000;fillColor=#ffffc0;strokeColor=#ff0000;" parent="Hbqb-1Qobj14XvleTHor-1" vertex="1">
                    <mxGeometry x="379" y="342" width="120" height="40" as="geometry"/>
                </mxCell>
                <mxCell id="Hbqb-1Qobj14XvleTHor-18" value="" style="ellipse;html=1;shape=endState;fillColor=#000000;strokeColor=#ff0000;" parent="Hbqb-1Qobj14XvleTHor-1" vertex="1">
                    <mxGeometry x="230" y="1015" width="30" height="30" as="geometry"/>
                </mxCell>
                <mxCell id="Hbqb-1Qobj14XvleTHor-19" value="" style="ellipse;html=1;shape=startState;fillColor=#000000;strokeColor=#ff0000;" parent="Hbqb-1Qobj14XvleTHor-1" vertex="1">
                    <mxGeometry x="195" y="140" width="30" height="30" as="geometry"/>
                </mxCell>
                <mxCell id="Hbqb-1Qobj14XvleTHor-20" value="" style="edgeStyle=orthogonalEdgeStyle;html=1;verticalAlign=bottom;endArrow=open;endSize=8;strokeColor=#ff0000;" parent="Hbqb-1Qobj14XvleTHor-1" source="Hbqb-1Qobj14XvleTHor-19" edge="1">
                    <mxGeometry relative="1" as="geometry">
                        <mxPoint x="210" y="210" as="targetPoint"/>
                    </mxGeometry>
                </mxCell>
                <mxCell id="Hbqb-1Qobj14XvleTHor-21" value="กดบันทึก" style="rounded=1;whiteSpace=wrap;html=1;arcSize=40;fontColor=#000000;fillColor=#ffffc0;strokeColor=#ff0000;" parent="Hbqb-1Qobj14XvleTHor-1" vertex="1">
                    <mxGeometry x="170" y="700" width="120" height="40" as="geometry"/>
                </mxCell>
                <mxCell id="Hbqb-1Qobj14XvleTHor-22" value="" style="edgeStyle=orthogonalEdgeStyle;html=1;verticalAlign=bottom;endArrow=open;endSize=8;strokeColor=#ff0000;exitX=0.5;exitY=1;exitDx=0;exitDy=0;entryX=0.5;entryY=0;entryDx=0;entryDy=0;" parent="Hbqb-1Qobj14XvleTHor-1" source="Hbqb-1Qobj14XvleTHor-27" target="Hbqb-1Qobj14XvleTHor-25" edge="1">
                    <mxGeometry relative="1" as="geometry">
                        <mxPoint x="230" y="772" as="targetPoint"/>
                    </mxGeometry>
                </mxCell>
                <mxCell id="Hbqb-1Qobj14XvleTHor-23" value="เลือกผู้ป่วย&lt;br&gt;จาก combobox" style="rounded=1;whiteSpace=wrap;html=1;arcSize=40;fontColor=#000000;fillColor=#ffffc0;strokeColor=#ff0000;" parent="Hbqb-1Qobj14XvleTHor-1" vertex="1">
                    <mxGeometry x="170" y="535" width="120" height="40" as="geometry"/>
                </mxCell>
                <mxCell id="Hbqb-1Qobj14XvleTHor-24" value="" style="edgeStyle=orthogonalEdgeStyle;html=1;verticalAlign=bottom;endArrow=open;endSize=8;strokeColor=#ff0000;" parent="Hbqb-1Qobj14XvleTHor-1" source="Hbqb-1Qobj14XvleTHor-23" target="Hbqb-1Qobj14XvleTHor-27" edge="1">
                    <mxGeometry relative="1" as="geometry">
                        <mxPoint x="230" y="645" as="targetPoint"/>
                    </mxGeometry>
                </mxCell>
                <mxCell id="Hbqb-1Qobj14XvleTHor-25" value="เลือกความสามารถความสิทธิ์จาก combobox" style="rounded=1;whiteSpace=wrap;html=1;arcSize=40;fontColor=#000000;fillColor=#ffffc0;strokeColor=#ff0000;" parent="Hbqb-1Qobj14XvleTHor-1" vertex="1">
                    <mxGeometry x="170" y="645" width="120" height="40" as="geometry"/>
                </mxCell>
                <mxCell id="Hbqb-1Qobj14XvleTHor-26" value="" style="edgeStyle=orthogonalEdgeStyle;html=1;verticalAlign=bottom;endArrow=open;endSize=8;strokeColor=#ff0000;entryX=0.5;entryY=0;entryDx=0;entryDy=0;exitX=0.5;exitY=1;exitDx=0;exitDy=0;" parent="Hbqb-1Qobj14XvleTHor-1" source="vxaVKWJyBxpBb2vEmbvl-5" target="Hbqb-1Qobj14XvleTHor-23" edge="1">
                    <mxGeometry relative="1" as="geometry">
                        <mxPoint x="240" y="608.5" as="targetPoint"/>
                        <Array as="points"/>
                        <mxPoint x="240" y="520" as="sourcePoint"/>
                    </mxGeometry>
                </mxCell>
                <mxCell id="Hbqb-1Qobj14XvleTHor-27" value="&lt;span&gt;เลือกประกัน&lt;/span&gt;&lt;br&gt;&lt;span&gt;จาก combobox&lt;/span&gt;" style="rounded=1;whiteSpace=wrap;html=1;arcSize=40;fontColor=#000000;fillColor=#ffffc0;strokeColor=#ff0000;" parent="Hbqb-1Qobj14XvleTHor-1" vertex="1">
                    <mxGeometry x="170" y="590" width="120" height="40" as="geometry"/>
                </mxCell>
                <mxCell id="Hbqb-1Qobj14XvleTHor-28" value="" style="html=1;verticalAlign=bottom;endArrow=open;endSize=8;strokeColor=#ff0000;entryX=0.5;entryY=0;entryDx=0;entryDy=0;exitX=0.5;exitY=1;exitDx=0;exitDy=0;edgeStyle=orthogonalEdgeStyle;rounded=1;" parent="Hbqb-1Qobj14XvleTHor-1" source="Hbqb-1Qobj14XvleTHor-21" target="Hbqb-1Qobj14XvleTHor-42" edge="1">
                    <mxGeometry relative="1" as="geometry">
                        <mxPoint x="624" y="1219.5" as="targetPoint"/>
                        <mxPoint x="254" y="1129.5" as="sourcePoint"/>
                    </mxGeometry>
                </mxCell>
                <mxCell id="Hbqb-1Qobj14XvleTHor-29" value="" style="edgeStyle=orthogonalEdgeStyle;html=1;verticalAlign=bottom;endArrow=open;endSize=8;strokeColor=#ff0000;entryX=0.5;entryY=0;entryDx=0;entryDy=0;exitX=0.5;exitY=1;exitDx=0;exitDy=0;" parent="Hbqb-1Qobj14XvleTHor-1" source="Hbqb-1Qobj14XvleTHor-42" target="Hbqb-1Qobj14XvleTHor-45" edge="1">
                    <mxGeometry relative="1" as="geometry">
                        <mxPoint x="237.37" y="1155" as="targetPoint"/>
                        <Array as="points">
                            <mxPoint x="600" y="820"/>
                            <mxPoint x="600" y="820"/>
                        </Array>
                        <mxPoint x="605" y="965" as="sourcePoint"/>
                    </mxGeometry>
                </mxCell>
                <mxCell id="Hbqb-1Qobj14XvleTHor-30" value="" style="edgeStyle=orthogonalEdgeStyle;html=1;verticalAlign=bottom;endArrow=open;endSize=8;strokeColor=#ff0000;exitX=0.5;exitY=0;exitDx=0;exitDy=0;entryX=0.5;entryY=1;entryDx=0;entryDy=0;" parent="Hbqb-1Qobj14XvleTHor-1" source="Ff7vZJIO7-Za2Zly2yPD-2" target="Hbqb-1Qobj14XvleTHor-17" edge="1">
                    <mxGeometry relative="1" as="geometry">
                        <mxPoint x="241" y="508" as="targetPoint"/>
                        <mxPoint x="604" y="700" as="sourcePoint"/>
                        <Array as="points">
                            <mxPoint x="439" y="463"/>
                        </Array>
                    </mxGeometry>
                </mxCell>
                <mxCell id="Hbqb-1Qobj14XvleTHor-31" value="โหลดข้อมูลความสามารถสิทธิ์ลงใน combobox" style="rounded=1;whiteSpace=wrap;html=1;arcSize=40;fontColor=#000000;fillColor=#ffffc0;strokeColor=#ff0000;" parent="Hbqb-1Qobj14XvleTHor-1" vertex="1">
                    <mxGeometry x="528" y="545" width="141" height="40" as="geometry"/>
                </mxCell>
                <mxCell id="Hbqb-1Qobj14XvleTHor-32" value="" style="edgeStyle=orthogonalEdgeStyle;html=1;verticalAlign=bottom;endArrow=open;endSize=8;strokeColor=#ff0000;entryX=0.5;entryY=0;entryDx=0;entryDy=0;exitX=0.5;exitY=1;exitDx=0;exitDy=0;" parent="Hbqb-1Qobj14XvleTHor-1" source="Hbqb-1Qobj14XvleTHor-31" target="_hG9OCsaK_urBVBz3_W4-3" edge="1">
                    <mxGeometry relative="1" as="geometry">
                        <mxPoint x="599" y="620" as="targetPoint"/>
                        <Array as="points">
                            <mxPoint x="600" y="585"/>
                        </Array>
                    </mxGeometry>
                </mxCell>
                <mxCell id="Hbqb-1Qobj14XvleTHor-34" value="แสดงข้อมูล ผู้ป่วย&lt;br&gt;ลงใน combobox" style="rounded=1;whiteSpace=wrap;html=1;arcSize=40;fontColor=#000000;fillColor=#ffffc0;strokeColor=#ff0000;" parent="Hbqb-1Qobj14XvleTHor-1" vertex="1">
                    <mxGeometry x="379" y="603" width="120" height="40" as="geometry"/>
                </mxCell>
                <mxCell id="Hbqb-1Qobj14XvleTHor-35" value="" style="edgeStyle=orthogonalEdgeStyle;html=1;verticalAlign=bottom;endArrow=open;endSize=8;strokeColor=#ff0000;entryX=0.5;entryY=1;entryDx=0;entryDy=0;" parent="Hbqb-1Qobj14XvleTHor-1" source="Hbqb-1Qobj14XvleTHor-34" target="Hbqb-1Qobj14XvleTHor-36" edge="1">
                    <mxGeometry relative="1" as="geometry">
                        <mxPoint x="599" y="826.5" as="targetPoint"/>
                    </mxGeometry>
                </mxCell>
                <mxCell id="Hbqb-1Qobj14XvleTHor-36" value="แสดงข้อมูล ประกัน&lt;br&gt;ลงใน combobox" style="rounded=1;whiteSpace=wrap;html=1;arcSize=40;fontColor=#000000;fillColor=#ffffc0;strokeColor=#ff0000;" parent="Hbqb-1Qobj14XvleTHor-1" vertex="1">
                    <mxGeometry x="379" y="538" width="120" height="40" as="geometry"/>
                </mxCell>
                <mxCell id="Hbqb-1Qobj14XvleTHor-37" value="" style="edgeStyle=orthogonalEdgeStyle;html=1;verticalAlign=bottom;endArrow=open;endSize=8;strokeColor=#ff0000;entryX=0.5;entryY=1;entryDx=0;entryDy=0;" parent="Hbqb-1Qobj14XvleTHor-1" source="Hbqb-1Qobj14XvleTHor-36" target="Hbqb-1Qobj14XvleTHor-38" edge="1">
                    <mxGeometry relative="1" as="geometry">
                        <mxPoint x="599" y="776.5" as="targetPoint"/>
                    </mxGeometry>
                </mxCell>
                <mxCell id="Hbqb-1Qobj14XvleTHor-38" value="แสดงข้อมูล ความสามารถสิทธิ์ &lt;br&gt;ลงใน combobox" style="rounded=1;whiteSpace=wrap;html=1;arcSize=40;fontColor=#000000;fillColor=#ffffc0;strokeColor=#ff0000;" parent="Hbqb-1Qobj14XvleTHor-1" vertex="1">
                    <mxGeometry x="359" y="478" width="160" height="40" as="geometry"/>
                </mxCell>
                <mxCell id="Hbqb-1Qobj14XvleTHor-39" value="" style="edgeStyle=orthogonalEdgeStyle;html=1;verticalAlign=bottom;endArrow=open;endSize=8;strokeColor=#ff0000;entryX=0.5;entryY=1;entryDx=0;entryDy=0;" parent="Hbqb-1Qobj14XvleTHor-1" source="Hbqb-1Qobj14XvleTHor-38" target="Ff7vZJIO7-Za2Zly2yPD-2" edge="1">
                    <mxGeometry relative="1" as="geometry">
                        <mxPoint x="599" y="886" as="targetPoint"/>
                    </mxGeometry>
                </mxCell>
                <mxCell id="Hbqb-1Qobj14XvleTHor-42" value="สร้างสิทธิ์ผู้ป่วยใหม่ โดยใส่ข้อมูล ผู้ป่วย เลขที่สิทธิ์ ประกัน พนักงานลงทะเบียน และ วันที่ที่ทำการลงทะเบียน" style="rounded=1;whiteSpace=wrap;html=1;arcSize=40;fontColor=#000000;fillColor=#ffffc0;strokeColor=#ff0000;" parent="Hbqb-1Qobj14XvleTHor-1" vertex="1">
                    <mxGeometry x="498.5" y="780" width="200" height="55" as="geometry"/>
                </mxCell>
                <mxCell id="Hbqb-1Qobj14XvleTHor-45" value="ตรวจสอบว่ากรอก&lt;br&gt;ข้อมูลถูกต้องหรือไม่" style="rhombus;whiteSpace=wrap;html=1;fillColor=#ffffc0;strokeColor=#ff0000;" parent="Hbqb-1Qobj14XvleTHor-1" vertex="1">
                    <mxGeometry x="510" y="850" width="180" height="70" as="geometry"/>
                </mxCell>
                <mxCell id="Hbqb-1Qobj14XvleTHor-46" value="" style="edgeStyle=orthogonalEdgeStyle;html=1;align=left;verticalAlign=bottom;endArrow=open;endSize=8;strokeColor=#ff0000;entryX=0;entryY=0.5;entryDx=0;entryDy=0;exitX=0;exitY=0.5;exitDx=0;exitDy=0;" parent="Hbqb-1Qobj14XvleTHor-1" source="Ff7vZJIO7-Za2Zly2yPD-8" target="vxaVKWJyBxpBb2vEmbvl-1" edge="1">
                    <mxGeometry x="-0.9669" y="-15" relative="1" as="geometry">
                        <mxPoint x="244" y="989.5" as="targetPoint"/>
                        <Array as="points">
                            <mxPoint x="120" y="960"/>
                            <mxPoint x="120" y="380"/>
                        </Array>
                        <mxPoint as="offset"/>
                    </mxGeometry>
                </mxCell>
                <mxCell id="Hbqb-1Qobj14XvleTHor-47" value="" style="edgeStyle=orthogonalEdgeStyle;html=1;align=left;verticalAlign=top;endArrow=open;endSize=8;strokeColor=#ff0000;" parent="Hbqb-1Qobj14XvleTHor-1" source="Ff7vZJIO7-Za2Zly2yPD-7" target="Hbqb-1Qobj14XvleTHor-18" edge="1">
                    <mxGeometry x="-1" y="42" relative="1" as="geometry">
                        <mxPoint x="209" y="1255" as="targetPoint"/>
                        <mxPoint x="-1" y="-10" as="offset"/>
                        <Array as="points">
                            <mxPoint x="599" y="990"/>
                            <mxPoint x="245" y="990"/>
                        </Array>
                    </mxGeometry>
                </mxCell>
                <mxCell id="Hbqb-1Qobj14XvleTHor-48" value="ตรวจสอบว่ามีสิทธิ์&lt;br&gt;เข้าถึงหรือไม่" style="rhombus;whiteSpace=wrap;html=1;fillColor=#ffffc0;strokeColor=#ff0000;" parent="Hbqb-1Qobj14XvleTHor-1" vertex="1">
                    <mxGeometry x="529" y="270" width="140" height="68" as="geometry"/>
                </mxCell>
                <mxCell id="Hbqb-1Qobj14XvleTHor-49" value="" style="edgeStyle=orthogonalEdgeStyle;html=1;align=left;verticalAlign=top;endArrow=open;endSize=8;strokeColor=#ff0000;entryX=0.5;entryY=0;entryDx=0;entryDy=0;" parent="Hbqb-1Qobj14XvleTHor-1" source="Ff7vZJIO7-Za2Zly2yPD-0" target="Hbqb-1Qobj14XvleTHor-12" edge="1">
                    <mxGeometry x="-0.3333" y="11" relative="1" as="geometry">
                        <mxPoint x="640" y="292" as="targetPoint"/>
                        <mxPoint as="offset"/>
                    </mxGeometry>
                </mxCell>
                <mxCell id="Hbqb-1Qobj14XvleTHor-50" value="[ no ]" style="edgeStyle=orthogonalEdgeStyle;html=1;align=left;verticalAlign=bottom;endArrow=open;endSize=8;strokeColor=#ff0000;entryX=1;entryY=0.5;entryDx=0;entryDy=0;exitX=1;exitY=0.5;exitDx=0;exitDy=0;" parent="Hbqb-1Qobj14XvleTHor-1" source="Hbqb-1Qobj14XvleTHor-48" target="Hbqb-1Qobj14XvleTHor-18" edge="1">
                    <mxGeometry x="-0.9775" y="14" relative="1" as="geometry">
                        <mxPoint x="659" y="1189" as="targetPoint"/>
                        <Array as="points">
                            <mxPoint x="730" y="304"/>
                            <mxPoint x="730" y="1030"/>
                        </Array>
                        <mxPoint x="656.9117647058824" y="323" as="sourcePoint"/>
                        <mxPoint as="offset"/>
                    </mxGeometry>
                </mxCell>
                <mxCell id="Hbqb-1Qobj14XvleTHor-51" value="โหลดข้อมูล&lt;br&gt;สถานะ" style="rounded=1;whiteSpace=wrap;html=1;arcSize=40;fontColor=#000000;fillColor=#ffffc0;strokeColor=#ff0000;" parent="Hbqb-1Qobj14XvleTHor-1" vertex="1">
                    <mxGeometry x="539" y="210" width="120" height="40" as="geometry"/>
                </mxCell>
                <mxCell id="Hbqb-1Qobj14XvleTHor-52" value="" style="edgeStyle=orthogonalEdgeStyle;html=1;verticalAlign=bottom;endArrow=open;endSize=8;strokeColor=#ff0000;entryX=0.5;entryY=0;entryDx=0;entryDy=0;" parent="Hbqb-1Qobj14XvleTHor-1" source="Hbqb-1Qobj14XvleTHor-51" target="Hbqb-1Qobj14XvleTHor-48" edge="1">
                    <mxGeometry relative="1" as="geometry">
                        <mxPoint x="599" y="250" as="targetPoint"/>
                    </mxGeometry>
                </mxCell>
                <mxCell id="Ff7vZJIO7-Za2Zly2yPD-0" value="โหลดข้อมูล&lt;br&gt;&lt;span&gt;พนักงานเวชระเบียน&lt;/span&gt;" style="rounded=1;whiteSpace=wrap;html=1;arcSize=40;fontColor=#000000;fillColor=#ffffc0;strokeColor=#ff0000;" parent="Hbqb-1Qobj14XvleTHor-1" vertex="1">
                    <mxGeometry x="539" y="365" width="120" height="40" as="geometry"/>
                </mxCell>
                <mxCell id="Ff7vZJIO7-Za2Zly2yPD-1" value="[ yes ]" style="edgeStyle=orthogonalEdgeStyle;html=1;align=left;verticalAlign=top;endArrow=open;endSize=8;strokeColor=#ff0000;entryX=0.5;entryY=0;entryDx=0;entryDy=0;" parent="Hbqb-1Qobj14XvleTHor-1" source="Hbqb-1Qobj14XvleTHor-48" target="Ff7vZJIO7-Za2Zly2yPD-0" edge="1">
                    <mxGeometry x="-1" relative="1" as="geometry">
                        <mxPoint x="599" y="470" as="targetPoint"/>
                        <mxPoint x="599" y="337.9999999999999" as="sourcePoint"/>
                    </mxGeometry>
                </mxCell>
                <mxCell id="Ff7vZJIO7-Za2Zly2yPD-2" value="แสดงข้อมูล&amp;nbsp;&lt;br&gt;พนักงานเวชระเบียน&lt;br&gt;ลงใน textbox" style="rounded=1;whiteSpace=wrap;html=1;arcSize=40;fontColor=#000000;fillColor=#ffffc0;strokeColor=#ff0000;" parent="Hbqb-1Qobj14XvleTHor-1" vertex="1">
                    <mxGeometry x="379" y="408" width="120" height="50" as="geometry"/>
                </mxCell>
                <mxCell id="Ff7vZJIO7-Za2Zly2yPD-6" value="" style="edgeStyle=orthogonalEdgeStyle;html=1;verticalAlign=bottom;endArrow=open;endSize=8;strokeColor=#ff0000;exitX=0.5;exitY=0;exitDx=0;exitDy=0;entryX=0.5;entryY=0;entryDx=0;entryDy=0;" parent="Hbqb-1Qobj14XvleTHor-1" source="Hbqb-1Qobj14XvleTHor-17" target="vxaVKWJyBxpBb2vEmbvl-1" edge="1">
                    <mxGeometry relative="1" as="geometry">
                        <mxPoint x="609" y="755" as="targetPoint"/>
                        <mxPoint x="609" y="732.5" as="sourcePoint"/>
                        <Array as="points">
                            <mxPoint x="439" y="320"/>
                            <mxPoint x="230" y="320"/>
                        </Array>
                    </mxGeometry>
                </mxCell>
                <mxCell id="Ff7vZJIO7-Za2Zly2yPD-7" value="&lt;span&gt;แสดงข้อความบันทึกสำเร็จ&lt;/span&gt;" style="rounded=1;whiteSpace=wrap;html=1;arcSize=40;fontColor=#000000;fillColor=#ffffc0;strokeColor=#ff0000;" parent="Hbqb-1Qobj14XvleTHor-1" vertex="1">
                    <mxGeometry x="540" y="940" width="120" height="40" as="geometry"/>
                </mxCell>
                <mxCell id="Ff7vZJIO7-Za2Zly2yPD-9" value="[ yes ]" style="edgeStyle=orthogonalEdgeStyle;html=1;align=left;verticalAlign=top;endArrow=open;endSize=8;strokeColor=#ff0000;" parent="Hbqb-1Qobj14XvleTHor-1" source="Hbqb-1Qobj14XvleTHor-45" target="Ff7vZJIO7-Za2Zly2yPD-7" edge="1">
                    <mxGeometry x="-1" y="20" relative="1" as="geometry">
                        <mxPoint x="599" y="1130.0000000000002" as="targetPoint"/>
                        <mxPoint x="599" y="800" as="sourcePoint"/>
                        <mxPoint as="offset"/>
                    </mxGeometry>
                </mxCell>
                <mxCell id="Ff7vZJIO7-Za2Zly2yPD-8" value="แสดงข้อความและสาเหตุบันทึกไม่สำเร็จ" style="rounded=1;whiteSpace=wrap;html=1;arcSize=40;fontColor=#000000;fillColor=#ffffc0;strokeColor=#ff0000;" parent="Hbqb-1Qobj14XvleTHor-1" vertex="1">
                    <mxGeometry x="390" y="940" width="120" height="40" as="geometry"/>
                </mxCell>
                <mxCell id="Ff7vZJIO7-Za2Zly2yPD-11" value="[ no ]" style="edgeStyle=orthogonalEdgeStyle;html=1;align=left;verticalAlign=bottom;endArrow=open;endSize=8;strokeColor=#ff0000;entryX=0.5;entryY=0;entryDx=0;entryDy=0;exitX=0;exitY=0.5;exitDx=0;exitDy=0;" parent="Hbqb-1Qobj14XvleTHor-1" source="Hbqb-1Qobj14XvleTHor-45" target="Ff7vZJIO7-Za2Zly2yPD-8" edge="1">
                    <mxGeometry x="-0.1304" y="-15" relative="1" as="geometry">
                        <mxPoint x="170" y="384.9999999999999" as="targetPoint"/>
                        <Array as="points">
                            <mxPoint x="450" y="885"/>
                        </Array>
                        <mxPoint as="offset"/>
                        <mxPoint x="529" y="765" as="sourcePoint"/>
                    </mxGeometry>
                </mxCell>
                <mxCell id="vxaVKWJyBxpBb2vEmbvl-1" value="กรอกชื่อสิทธิ์ลง Textfield" style="rounded=1;whiteSpace=wrap;html=1;arcSize=40;fontColor=#000000;fillColor=#ffffc0;strokeColor=#ff0000;" parent="Hbqb-1Qobj14XvleTHor-1" vertex="1">
                    <mxGeometry x="170" y="360" width="120" height="40" as="geometry"/>
                </mxCell>
                <mxCell id="vxaVKWJyBxpBb2vEmbvl-2" value="" style="edgeStyle=orthogonalEdgeStyle;html=1;verticalAlign=bottom;endArrow=open;endSize=8;strokeColor=#ff0000;entryX=0.5;entryY=0;entryDx=0;entryDy=0;" parent="Hbqb-1Qobj14XvleTHor-1" source="vxaVKWJyBxpBb2vEmbvl-1" target="vxaVKWJyBxpBb2vEmbvl-3" edge="1">
                    <mxGeometry relative="1" as="geometry">
                        <mxPoint x="230" y="490" as="targetPoint"/>
                    </mxGeometry>
                </mxCell>
                <mxCell id="vxaVKWJyBxpBb2vEmbvl-3" value="กรอกพื้นที่ที่ใช้สิทธิ์ลง Textfield" style="rounded=1;whiteSpace=wrap;html=1;arcSize=40;fontColor=#000000;fillColor=#ffffc0;strokeColor=#ff0000;" parent="Hbqb-1Qobj14XvleTHor-1" vertex="1">
                    <mxGeometry x="170" y="420" width="120" height="40" as="geometry"/>
                </mxCell>
                <mxCell id="vxaVKWJyBxpBb2vEmbvl-4" value="" style="edgeStyle=orthogonalEdgeStyle;html=1;verticalAlign=bottom;endArrow=open;endSize=8;strokeColor=#ff0000;entryX=0.5;entryY=0;entryDx=0;entryDy=0;" parent="Hbqb-1Qobj14XvleTHor-1" source="Hbqb-1Qobj14XvleTHor-25" target="Hbqb-1Qobj14XvleTHor-21" edge="1">
                    <mxGeometry relative="1" as="geometry">
                        <mxPoint x="230" y="702.75" as="targetPoint"/>
                    </mxGeometry>
                </mxCell>
                <mxCell id="vxaVKWJyBxpBb2vEmbvl-5" value="กรอกผู้รับผิดชอบดูแลลง Textfield" style="rounded=1;whiteSpace=wrap;html=1;arcSize=40;fontColor=#000000;fillColor=#ffffc0;strokeColor=#ff0000;" parent="Hbqb-1Qobj14XvleTHor-1" vertex="1">
                    <mxGeometry x="170" y="480" width="120" height="40" as="geometry"/>
                </mxCell>
                <mxCell id="vxaVKWJyBxpBb2vEmbvl-8" value="" style="edgeStyle=orthogonalEdgeStyle;html=1;verticalAlign=bottom;endArrow=open;endSize=8;strokeColor=#ff0000;" parent="Hbqb-1Qobj14XvleTHor-1" source="vxaVKWJyBxpBb2vEmbvl-3" target="vxaVKWJyBxpBb2vEmbvl-5" edge="1">
                    <mxGeometry relative="1" as="geometry">
                        <mxPoint x="230" y="542.75" as="targetPoint"/>
                        <mxPoint x="230" y="482.75" as="sourcePoint"/>
                    </mxGeometry>
                </mxCell>
                <mxCell id="_hG9OCsaK_urBVBz3_W4-0" value="" style="edgeStyle=orthogonalEdgeStyle;rounded=1;orthogonalLoop=1;jettySize=auto;html=1;endArrow=openThin;endFill=0;strokeColor=#FF0000;exitX=0.5;exitY=1;exitDx=0;exitDy=0;entryX=0.5;entryY=1;entryDx=0;entryDy=0;" edge="1" parent="Hbqb-1Qobj14XvleTHor-1" source="_hG9OCsaK_urBVBz3_W4-4" target="_hG9OCsaK_urBVBz3_W4-5">
                    <mxGeometry relative="1" as="geometry">
                        <mxPoint x="692.5" y="662" as="sourcePoint"/>
                        <mxPoint x="692.5" y="662" as="targetPoint"/>
                    </mxGeometry>
                </mxCell>
                <mxCell id="_hG9OCsaK_urBVBz3_W4-2" value="" style="edgeStyle=orthogonalEdgeStyle;rounded=0;orthogonalLoop=1;jettySize=auto;html=1;endArrow=open;endFill=0;strokeColor=#FF0000;entryX=0.5;entryY=0;entryDx=0;entryDy=0;" edge="1" parent="Hbqb-1Qobj14XvleTHor-1" source="_hG9OCsaK_urBVBz3_W4-3" target="_hG9OCsaK_urBVBz3_W4-4">
                    <mxGeometry relative="1" as="geometry"/>
                </mxCell>
                <mxCell id="_hG9OCsaK_urBVBz3_W4-3" value="&lt;font style=&quot;font-size: 13px&quot;&gt;แสดง textfield เพื่อ&lt;/font&gt;กรอกชื่อสิทธิ์" style="rounded=1;whiteSpace=wrap;html=1;arcSize=40;fontColor=#000000;fillColor=#ffffc0;strokeColor=#ff0000;" vertex="1" parent="Hbqb-1Qobj14XvleTHor-1">
                    <mxGeometry x="540" y="612" width="120" height="40" as="geometry"/>
                </mxCell>
                <mxCell id="_hG9OCsaK_urBVBz3_W4-4" value="&lt;span style=&quot;font-size: 13px&quot;&gt;แสดง textfield เพื่อ&lt;br&gt;กรอก&lt;/span&gt;พื้นที่ที่ใช้สิทธิ์" style="rounded=1;whiteSpace=wrap;html=1;arcSize=40;fontColor=#000000;fillColor=#ffffc0;strokeColor=#ff0000;" vertex="1" parent="Hbqb-1Qobj14XvleTHor-1">
                    <mxGeometry x="542.5" y="670" width="115" height="40" as="geometry"/>
                </mxCell>
                <mxCell id="_hG9OCsaK_urBVBz3_W4-5" value="&lt;font style=&quot;font-size: 13px&quot;&gt;แสดง textfield เพื่อ&lt;br&gt;กรอก&lt;/font&gt;ผู้รับผิดชอบดูแล" style="rounded=1;whiteSpace=wrap;html=1;arcSize=40;fontColor=#000000;fillColor=#ffffc0;strokeColor=#ff0000;" vertex="1" parent="Hbqb-1Qobj14XvleTHor-1">
                    <mxGeometry x="381.5" y="670" width="115" height="40" as="geometry"/>
                </mxCell>
                <mxCell id="_hG9OCsaK_urBVBz3_W4-12" value="" style="edgeStyle=orthogonalEdgeStyle;rounded=0;orthogonalLoop=1;jettySize=auto;html=1;endArrow=openThin;endFill=0;strokeColor=#FF0000;" edge="1" parent="Hbqb-1Qobj14XvleTHor-1" source="_hG9OCsaK_urBVBz3_W4-5" target="Hbqb-1Qobj14XvleTHor-34">
                    <mxGeometry relative="1" as="geometry">
                        <mxPoint x="999.76" y="820" as="sourcePoint"/>
                        <mxPoint x="999.76" y="850" as="targetPoint"/>
                    </mxGeometry>
                </mxCell>
            </root>
        </mxGraphModel>
    </diagram>
</mxfile>